<svg width="178" height="40" viewBox="0 0 178 40" fill="none" xmlns="http://www.w3.org/2000/svg">
<path fill-rule="evenodd" clip-rule="evenodd" d="M8.13822 0.125948C6.14839 0.668628 4.97259 2.65702 5.51383 4.73729H5.51527C5.96894 6.72712 8.04921 7.90293 10.039 7.36025C12.0246 6.90801 13.2937 4.82774 12.7496 2.83935C12.2054 0.850957 10.2185 -0.416732 8.13822 0.125948ZM33.4499 6.18579C31.4601 6.18579 29.7402 7.90284 29.7402 9.98168C29.7402 12.062 31.3697 13.69 33.4499 13.69C35.5302 13.69 37.2458 12.0591 37.2458 9.98168C37.2458 7.90428 35.4398 6.18579 33.4499 6.18579ZM3.70643 27.3419C2.71152 25.5315 3.34177 23.1813 5.06169 22.1864C6.86776 21.1011 9.22224 21.7356 10.2172 23.5417C11.3025 25.352 10.668 27.6118 8.86189 28.6971C7.05152 29.6906 4.79179 29.0575 3.70643 27.3419ZM13.9226 37.4674C14.587 33.7996 18.2519 31.0531 21.441 28.6632L21.4415 28.6629L21.4416 28.6628L21.4416 28.6628L21.4417 28.6627L21.4418 28.6627L21.4419 28.6626L21.4419 28.6625L21.442 28.6625L21.4421 28.6624L21.4421 28.6624L21.4422 28.6623L21.4423 28.6623L21.4423 28.6622C21.7118 28.4603 21.9778 28.261 22.2383 28.0638L18.0783 23.8171C17.8461 23.9947 17.6143 24.1707 17.3837 24.3459L17.3795 24.3491L17.3746 24.3528L17.3739 24.3533C14.5578 26.4923 11.9112 28.5025 10.5765 31.5898C6.86729 31.2295 3.61595 32.6752 0 34.3046L1.62926 39.9095C2.07414 39.7333 2.52861 39.5476 2.99034 39.359C6.55865 37.9012 10.5607 36.2663 13.9212 37.4688L13.9226 37.4674ZM33.5396 23.8158C35.8525 21.1849 40.0592 20.5919 43.8701 20.0547C44.3827 19.9824 44.8881 19.9112 45.3808 19.8361L43.9353 14.1394L43.5865 14.1799C39.8331 14.615 36.3413 15.0198 33.4492 17.1227C30.5384 15.0083 27.1128 14.6106 23.3401 14.1727L23.0535 14.1394L21.608 19.8361C22.1124 19.9129 22.6315 19.9858 23.1589 20.0598L23.1593 20.0599C26.9779 20.5957 31.2366 21.1934 33.5396 23.8158ZM12.6579 17.1226C14.181 13.9932 18.2029 12.3577 21.8055 10.8928L21.8055 10.8928L21.8055 10.8928L21.8056 10.8928L21.8056 10.8927L21.8056 10.8927L21.8057 10.8927L21.8057 10.8927L21.8057 10.8927L21.8057 10.8927C22.2605 10.7078 22.7085 10.5256 23.144 10.3434L20.3391 5.18799C16.6342 6.54756 13.2924 7.81238 10.9382 10.7038C7.72735 9.35246 4.43748 9.81867 0.848202 10.3273L0.84816 10.3273L0.848103 10.3273L0.848039 10.3273L0.84793 10.3274L0.847771 10.3274L0.847539 10.3274C0.597108 10.3629 0.345219 10.3986 0.0917969 10.4339V16.2196C0.529209 16.1722 0.976573 16.1198 1.43085 16.0666L1.43146 16.0665C5.2974 15.6135 9.66381 15.1019 12.6579 17.1226ZM59.1214 25.1743L59.1214 25.1726L59.1228 25.1754L59.1214 25.1743ZM57.5869 24.4504C58.1303 24.6311 58.6709 24.8118 59.1214 25.1743C59.1208 25.3557 59.0304 25.7155 58.8515 26.2579C58.7702 26.6631 58.689 26.9952 58.6087 27.323L58.6087 27.3232L58.5817 27.4337H58.1309C57.5869 26.7087 57.0457 26.2579 56.4112 25.9866C55.8672 25.6248 55.1466 25.5343 54.4217 25.5343C52.9761 25.5343 51.8005 26.1675 50.8057 27.4337C49.9014 28.6985 49.4506 30.4156 49.4506 32.5849C49.4506 34.121 49.9014 35.4792 50.6263 36.5631C51.6211 37.8308 52.8871 38.461 54.4217 38.461C55.1466 38.461 55.9605 38.2816 56.7715 37.9198C57.5869 37.6499 58.1309 37.1948 58.4008 36.744L58.942 36.9249L58.4008 38.8228C58.2199 39.0956 57.5854 39.3655 56.6811 39.5464C55.7796 39.7287 54.8753 39.8192 53.9709 39.8192C51.2565 39.8192 49.1808 39.0066 47.5544 37.469C46.195 36.0219 45.4715 34.3048 45.4715 32.226C45.4715 30.1471 46.0155 28.3382 47.1912 26.9829C48.0065 25.8071 49.2712 24.9931 50.8071 24.5409C51.8924 24.0901 53.0666 23.9092 54.2422 23.9092C55.5069 23.9092 56.5921 24.0901 57.5869 24.4504ZM77.5669 31.6789C77.5669 34.3033 76.842 36.2903 75.3965 37.6484C73.9509 39.0037 71.8709 39.7272 69.2469 39.8177V38.461C70.8762 38.3705 72.1408 37.558 72.9562 36.0204C73.4973 34.935 73.8576 33.6702 73.9509 32.0422C73.9509 30.2347 73.5863 28.6985 72.7753 27.5227C71.8709 26.2579 70.6953 25.6233 69.2469 25.6233V24.0872H69.6115C72.0518 24.0872 74.0385 24.8093 75.4869 26.3469C76.842 27.7926 77.5669 29.5987 77.5669 31.6789ZM69.2455 39.8177H68.6167C67.5315 39.8177 66.5367 39.6354 65.4515 39.275C64.0964 38.8228 63.0112 38.0102 62.1959 37.0153C61.204 35.7505 60.6599 34.0305 60.6599 32.0422C60.6599 30.0538 61.2915 28.4257 62.559 26.8881C64.1854 25.1725 66.3544 24.1776 69.2455 24.0872V25.6233C67.6191 25.7138 66.4449 26.3483 65.5405 27.7036C64.8156 28.8794 64.4553 30.506 64.4553 32.5848C64.4553 34.3952 64.906 35.8409 65.8147 36.9248C66.6257 37.9198 67.6205 38.461 68.9756 38.461H69.2455V39.8177ZM79.8224 39.4559H88.1424L88.1373 39.4354C88.0485 39.0817 87.9587 38.7241 87.9587 38.3706C87.9587 38.1007 88.052 37.7403 88.1424 37.4675L88.0119 37.4861C87.4207 37.5706 86.8219 37.6561 86.0624 37.7403H83.2618V24.2681L83.1277 24.2871L83.0042 24.3047C82.4773 24.3803 82.0086 24.4475 81.5421 24.4475C81.0638 24.4475 80.5833 24.378 80.0401 24.2994C79.9686 24.2891 79.8961 24.2786 79.8224 24.2681V39.4559ZM99.3531 26.3468C98.6281 26.2564 97.6334 26.1645 96.5481 26.0741C95.8891 26.0741 95.3311 26.0407 94.8929 26.0145C94.6096 25.9976 94.3764 25.9836 94.1983 25.9836V30.5045H98.1774C98.3683 30.4656 98.5267 30.4432 98.6665 30.4234C98.8569 30.3964 99.0129 30.3743 99.1693 30.3222C99.0789 30.7744 99.0789 31.0472 99.0789 31.3171C99.0789 31.587 99.0789 31.9517 99.1693 32.4025C98.7186 32.312 98.0841 32.312 97.2731 32.312C96.4592 32.2216 95.3739 32.2216 94.1983 32.2216V39.453C93.4734 39.3625 92.9336 39.3625 92.5719 39.3625C92.1183 39.3625 91.5771 39.3625 90.8522 39.453V24.4446H99.3516C99.2612 24.8064 99.2612 25.0777 99.2612 25.349C99.2612 25.7094 99.2612 25.9822 99.3516 26.344L99.3531 26.3468ZM114.631 36.0204C114.81 35.4791 114.901 34.5747 114.901 33.3989L114.902 33.4003V24.2681C114.827 24.2866 114.756 24.3052 114.687 24.3231C114.427 24.3908 114.209 24.4475 113.998 24.4475C113.731 24.4475 113.368 24.3585 113.003 24.2681V32.7657C113.003 34.3048 112.826 35.4806 112.462 36.2917C111.83 37.6499 110.656 38.2816 108.846 38.2816C107.581 38.2816 106.585 37.8308 105.955 36.8358C105.32 35.9314 105.05 34.7556 105.05 33.3099V24.2681C104.963 24.2803 104.877 24.2927 104.793 24.3047C104.266 24.3803 103.797 24.4475 103.331 24.4475C102.852 24.4475 102.372 24.378 101.829 24.2994C101.757 24.2891 101.685 24.2786 101.611 24.2681V34.121C101.611 35.9299 102.155 37.3757 103.24 38.461C104.415 39.4559 105.95 40 108.03 40C110.11 40 111.737 39.6354 112.825 38.7309C113.729 38.1007 114.361 37.1962 114.631 36.0204ZM129.271 26.3469C128.551 26.2564 127.826 26.1645 127.195 26.0741C126.807 26.0741 126.446 26.0481 126.11 26.024C125.82 26.0031 125.549 25.9836 125.296 25.9836V39.4544C124.662 39.364 124.121 39.364 123.49 39.364C122.946 39.364 122.405 39.364 121.864 39.4544V25.9836C121.566 25.9836 121.249 26.0036 120.911 26.0247C120.53 26.0486 120.124 26.0741 119.694 26.0741C118.878 26.1645 118.245 26.2564 117.704 26.3469C117.704 26.2555 117.727 26.1649 117.749 26.0744C117.772 25.9844 117.795 25.8944 117.795 25.8042C117.885 25.6219 117.885 25.4424 117.885 25.2615C117.885 24.993 117.797 24.7259 117.71 24.4587L117.706 24.446H129.273C129.251 24.535 129.23 24.6185 129.209 24.6979L129.209 24.6989C129.146 24.9418 129.093 25.1462 129.093 25.3505C129.093 25.6369 129.152 25.868 129.219 26.1323C129.231 26.1789 129.243 26.2265 129.256 26.2756C129.261 26.2985 129.267 26.3218 129.273 26.3454L129.271 26.3469ZM144.008 36.0204C144.191 35.4791 144.278 34.5747 144.278 33.3989L144.279 33.4003V24.2681C144.249 24.2755 144.22 24.2829 144.191 24.2903C144.16 24.2983 144.13 24.3063 144.099 24.3142C143.825 24.3858 143.588 24.4475 143.287 24.4475C143.07 24.4475 142.849 24.3897 142.583 24.3199C142.519 24.3031 142.453 24.2856 142.383 24.2681V32.7657C142.383 34.3048 142.202 35.4806 141.751 36.2917C141.117 37.6499 139.943 38.2816 138.223 38.2816C136.957 38.2816 135.966 37.8308 135.241 36.8358C134.7 35.9314 134.43 34.7556 134.43 33.3099V24.2681C134.341 24.2806 134.254 24.2931 134.168 24.3054C133.644 24.3807 133.178 24.4475 132.711 24.4475C132.231 24.4475 131.754 24.3784 131.214 24.3001L131.133 24.2884L130.991 24.2681V34.121C130.991 35.9299 131.532 37.3757 132.617 38.461C133.705 39.4559 135.332 40 137.321 40C139.492 40 141.117 39.6354 142.202 38.7309C143.103 38.1007 143.738 37.1962 144.008 36.0204ZM159.833 39.4559C159.105 39.3655 158.473 39.3655 157.753 39.3655C157.032 39.3655 156.304 39.3655 155.582 39.4559L153.228 35.2968V35.2944L151.514 32.4039V39.4559C150.882 39.3655 150.249 39.3655 149.799 39.3655C149.348 39.3655 148.804 39.3655 148.079 39.4559V24.268H153.228V24.2666C155.311 24.2666 156.756 24.7174 157.478 25.6219C158.022 26.1645 158.294 26.9786 158.294 28.0625C158.294 29.3302 157.933 30.2332 157.209 30.8649C156.665 31.3171 155.94 31.6775 155.038 31.8598L159.833 39.4545V39.4559ZM153.228 31.1377V31.1403C152.782 31.319 152.239 31.409 151.515 31.409V25.6233H152.15C152.33 25.6233 152.512 25.646 152.693 25.6687C152.873 25.6912 153.053 25.7137 153.231 25.7137V25.7133C153.501 25.8048 153.684 25.8924 153.953 26.0741C154.497 26.5263 154.857 27.2513 154.857 28.4243C154.857 29.5972 154.497 30.4127 153.776 30.8649C153.593 30.9579 153.413 31.0466 153.23 31.1367L153.228 31.1377ZM175.736 37.6484C177.275 36.2903 178 34.3033 178 31.6789C178 29.5987 177.275 27.7926 175.83 26.3469C174.384 24.8093 172.485 24.0872 170.045 24.0872H169.591V25.6233H169.684C171.13 25.6233 172.301 26.2579 173.119 27.5227C173.93 28.6985 174.384 30.2347 174.384 32.0422C174.2 33.6702 173.84 34.935 173.299 36.0204C172.483 37.558 171.312 38.3705 169.59 38.461H169.32C168.054 38.461 166.973 37.9198 166.162 36.9248C165.346 35.8409 164.893 34.3952 164.893 32.5848C164.893 30.506 165.253 28.8794 165.978 27.7036C166.789 26.3483 168.054 25.7138 169.59 25.6233V24.0872C166.789 24.1776 164.532 25.1725 162.996 26.8881C161.725 28.4257 161.004 30.0538 161.004 32.0422C161.004 34.0305 161.545 35.7505 162.543 37.0153C163.354 38.0102 164.442 38.8228 165.885 39.275C166.879 39.6354 167.969 39.8177 169.05 39.8177H169.59C172.301 39.7272 174.294 39.0037 175.736 37.6484Z" fill="white"/>
</svg>
